<svg width="164" height="46" viewBox="0 0 164 46" fill="none" xmlns="http://www.w3.org/2000/svg">
<rect width="164" height="46" rx="6" fill="#030303"/>
<path d="M29.5508 11.6777H21.7109V33H16.4375V11.6777H8.70312V7.40625H29.5508V11.6777ZM39.4121 33.3516C36.623 33.3516 34.3496 32.4961 32.5918 30.7852C30.8457 29.0742 29.9727 26.7949 29.9727 23.9473V23.4551C29.9727 21.5449 30.3418 19.8398 31.0801 18.3398C31.8184 16.8281 32.8613 15.668 34.209 14.8594C35.5684 14.0391 37.1152 13.6289 38.8496 13.6289C41.4512 13.6289 43.4961 14.4492 44.9844 16.0898C46.4844 17.7305 47.2344 20.0566 47.2344 23.0684V25.1426H35.123C35.2871 26.3848 35.7793 27.3809 36.5996 28.1309C37.4316 28.8809 38.4805 29.2559 39.7461 29.2559C41.7031 29.2559 43.2324 28.5469 44.334 27.1289L46.8301 29.9238C46.0684 31.002 45.0371 31.8457 43.7363 32.4551C42.4355 33.0527 40.9941 33.3516 39.4121 33.3516ZM38.832 17.7422C37.8242 17.7422 37.0039 18.082 36.3711 18.7617C35.75 19.4414 35.3516 20.4141 35.1758 21.6797H42.2422V21.2754C42.2188 20.1504 41.9141 19.2832 41.3281 18.6738C40.7422 18.0527 39.9102 17.7422 38.832 17.7422ZM60.8223 18.7441C60.1309 18.6504 59.5215 18.6035 58.9941 18.6035C57.0723 18.6035 55.8125 19.2539 55.2148 20.5547V33H50.1348V13.9805H54.9336L55.0742 16.248C56.0938 14.502 57.5059 13.6289 59.3105 13.6289C59.873 13.6289 60.4004 13.7051 60.8926 13.8574L60.8223 18.7441ZM67.959 13.9805L68.1172 16.1777C69.4766 14.4785 71.2988 13.6289 73.584 13.6289C75.5996 13.6289 77.0996 14.2207 78.084 15.4043C79.0684 16.5879 79.5723 18.3574 79.5957 20.7129V33H74.5156V20.8359C74.5156 19.7578 74.2812 18.9785 73.8125 18.498C73.3438 18.0059 72.5645 17.7598 71.4746 17.7598C70.0449 17.7598 68.9727 18.3691 68.2578 19.5879V33H63.1777V13.9805H67.959ZM93.3418 24.0879H83.4453V19.9922H93.3418V24.0879ZM113.152 22.541H103.027V33H97.7539V7.40625H114.418V11.6777H103.027V18.2871H113.152V22.541ZM122.504 33H117.406V6H122.504V33ZM132.066 33H126.969V13.9805H132.066V33ZM126.67 9.05859C126.67 8.29688 126.922 7.66992 127.426 7.17773C127.941 6.68555 128.639 6.43945 129.518 6.43945C130.385 6.43945 131.076 6.68555 131.592 7.17773C132.107 7.66992 132.365 8.29688 132.365 9.05859C132.365 9.83203 132.102 10.4648 131.574 10.957C131.059 11.4492 130.373 11.6953 129.518 11.6953C128.662 11.6953 127.971 11.4492 127.443 10.957C126.928 10.4648 126.67 9.83203 126.67 9.05859ZM143.51 19.6582L146.709 13.9805H152.141L146.727 23.2969L152.369 33H146.92L143.527 27.0234L140.152 33H134.686L140.328 23.2969L134.932 13.9805H140.381L143.51 19.6582Z" fill="url(#paint0_linear)"/>
<defs>
<linearGradient id="paint0_linear" x1="82" y1="0" x2="82" y2="46" gradientUnits="userSpaceOnUse">
<stop offset="0.373764" stop-color="#DF3D3D"/>
<stop offset="1" stop-color="#DA3535" stop-opacity="0"/>
<stop offset="1" stop-color="#DC5555" stop-opacity="0.015625"/>
</linearGradient>
</defs>
</svg>
